General
Unique ID                                : 315165695365289762359641997113212778743 (0xED1AB47BD8F94D075432C610C65BB8F7)
Complete name                            : Zero[Hz] - DISTURBO [WEB-DL 1080p AAC x264-SEKAI].mkv
Format                                   : Matroska
Format version                           : Version 4
File size                                : 287 MiB
Duration                                 : 4 min 2 s
Overall bit rate                         : 9 937 kb/s
Frame rate                               : 29.970 FPS
Title                                    : Zero[Hz] - DISTURBO [WEB-DL 1080p AAC x264-SEKAI]
Encoded date                             : 2025-08-11 04:06:24 UTC
Writing application                      : mkvmerge 94.0 ('Initiate') 64-bit
Writing library                          : libebml v1.4.5 + libmatroska v1.7.1
Website                                  : https://sekai-archivist.blogspot.com/

Video
ID                                       : 1
Format                                   : AVC
Format/Info                              : Advanced Video Codec
Format profile                           : High@L4
Format settings                          : CABAC / 4 Ref Frames
Format settings, CABAC                   : Yes
Format settings, Reference frames        : 4 frames
Format settings, Slice count             : 8 slices per frame
Codec ID                                 : V_MPEG4/ISO/AVC
Duration                                 : 4 min 2 s
Bit rate                                 : 9 688 kb/s
Width                                    : 1 920 pixels
Height                                   : 906 pixels
Display aspect ratio                     : 2.119
Frame rate mode                          : Constant
Frame rate                               : 29.970 (30000/1001) FPS
Color space                              : YUV
Chroma subsampling                       : 4:2:0 (Type 2)
Bit depth                                : 8 bits
Scan type                                : Progressive
Bits/(Pixel*Frame)                       : 0.186
Stream size                              : 279 MiB (97%)
Language                                 : Japanese
Default                                  : Yes
Forced                                   : No
Color range                              : Limited
Color primaries                          : BT.709
Transfer characteristics                 : BT.709
Matrix coefficients                      : BT.709

Audio
ID                                       : 2
Format                                   : AAC LC
Format/Info                              : Advanced Audio Codec Low Complexity
Codec ID                                 : A_AAC-2
Duration                                 : 4 min 2 s
Bit rate                                 : 249 kb/s
Channel(s)                               : 2 channels
Channel layout                           : L R
Sampling rate                            : 48.0 kHz
Frame rate                               : 46.875 FPS (1024 SPF)
Compression mode                         : Lossy
Stream size                              : 7.18 MiB (3%)
Language                                 : Japanese
Default                                  : Yes
Forced                                   : No


